<?xml version="1.0" encoding="UTF-8" standalone="no"?>
<!DOCTYPE svg PUBLIC "-//W3C//DTD SVG 1.1//EN" "http://www.w3.org/Graphics/SVG/1.1/DTD/svg11.dtd">
<svg xmlns="http://www.w3.org/2000/svg" version="1.1" viewBox="0.00 0.00 512.00 512.00">
<path fill="#F0F0F0" d="
  M 51.16 371.99
  C 14.55 307.62 9.48 230.63 38.21 161.84
  C 61.95 104.97 107.69 59.05 164.49 34.79
  C 227.53 7.88 298.99 9.77 360.57 39.12
  C 392.07 54.14 420.08 76.64 442.02 103.56
  C 482.44 153.15 500.83 216.24 493.90 279.77
  C 483.63 374.08 417.14 453.83 326.48 481.37
  C 265.62 499.85 200.32 493.04 144.11 462.84
  A 0.90 0.87 50.4 0 0 143.47 462.77
  L 18.32 495.59
  Q 17.68 495.76 17.86 495.12
  L 51.29 373.02
  A 1.36 1.34 38.1 0 0 51.16 371.99
  Z
  M 94.60 366.89
  L 74.99 438.53
  Q 74.79 439.25 75.52 439.06
  L 149.07 419.78
  A 1.37 1.37 0.0 0 1 150.14 419.94
  Q 156.36 423.77 162.39 427.04
  C 215.37 455.77 278.61 459.52 333.49 436.18
  Q 402.16 406.97 435.98 338.76
  Q 440.20 330.25 443.79 319.92
  Q 455.50 286.16 455.18 253.24
  Q 454.47 177.92 404.50 121.41
  C 385.01 99.37 359.48 81.65 333.03 70.82
  Q 288.03 52.40 239.49 56.81
  C 160.34 64.00 92.83 118.64 68.96 194.43
  C 52.33 247.24 58.70 304.85 86.56 352.95
  Q 90.28 359.37 94.44 365.82
  Q 94.76 366.32 94.60 366.89
  Z"
/>
<path fill="#F0F0F0" d="
  M 200.12 231.34
  C 197.83 234.12 197.29 237.36 199.12 240.50
  C 214.68 267.28 235.84 289.22 262.91 303.59
  Q 271.53 308.18 282.78 312.87
  C 286.93 314.60 290.40 313.55 293.15 310.37
  Q 304.47 297.33 313.11 285.62
  C 316.99 280.35 323.66 283.13 328.29 285.28
  Q 348.87 294.79 372.27 306.52
  C 377.46 309.12 378.50 311.19 378.21 316.99
  Q 377.59 329.13 373.55 339.27
  C 369.55 349.31 357.33 357.42 347.04 362.36
  Q 338.61 366.41 330.26 367.34
  Q 314.08 369.14 301.34 365.82
  Q 286.46 361.94 265.45 353.22
  C 219.83 334.28 183.29 295.88 155.84 254.88
  C 141.00 232.73 131.72 206.16 139.71 179.69
  C 143.28 167.82 150.65 157.41 159.64 149.17
  C 167.51 141.96 177.83 143.77 187.48 144.02
  C 193.12 144.16 196.16 149.49 198.09 154.20
  Q 208.38 179.39 217.08 199.91
  C 219.84 206.42 215.36 211.77 211.04 217.48
  Q 205.57 224.69 200.12 231.34
  Z"
/>
</svg>
